<svg xmlns="http://www.w3.org/2000/svg" xmlns:xlink="http://www.w3.org/1999/xlink" viewBox="0 0 2342.28 917.19"><defs><linearGradient id="linear-gradient" x1="479.76" y1="393.34" x2="629.17" y2="393.34" gradientUnits="userSpaceOnUse"><stop offset="0" stop-color="#00291b"/><stop offset="0.45" stop-color="#126a36"/><stop offset="1" stop-color="#126a36"/></linearGradient></defs><g style="isolation:isolate"><g id="Layer_1" data-name="Layer 1"><circle cx="372.71" cy="457.58" r="370.35" fill="#b9965c"/><circle cx="372.71" cy="457.58" r="357.82" fill="#d5b769"/><path d="M494.63,221.64C320.29,221.64,179,363,179,537.32S320.29,853,494.63,853,810.3,711.66,810.3,537.32,669,221.64,494.63,221.64ZM492.34,791C354.09,791,242,678.91,242,540.66S354.09,290.34,492.34,290.34,742.66,402.41,742.66,540.66,630.59,791,492.34,791Z" transform="translate(-121.92 -79.74)" fill="#1c75bc" opacity="0.97"/><circle cx="372.71" cy="457.58" r="346.6" fill="#2b629a"/><text transform="translate(102.24 394.23) rotate(-70.35) scale(1 1.2)" font-size="57.91" fill="#fff" font-family="UberMove-Bold, Uber Move" font-weight="700">C</text><text transform="matrix(0.43, -0.9, 1.09, 0.51, 116.85, 355.32)" font-size="57.91" fill="#fff" font-family="UberMove-Bold, Uber Move" font-weight="700">I</text><text transform="matrix(0.51, -0.86, 1.03, 0.62, 121.91, 342.98)" font-size="57.91" fill="#fff" font-family="UberMove-Bold, Uber Move" font-weight="700">V</text><text transform="translate(143.6 307.95) rotate(-53.55) scale(1 1.2)" font-size="57.91" fill="#fff" font-family="UberMove-Bold, Uber Move" font-weight="700">I</text><text transform="matrix(0.66, -0.76, 0.91, 0.79, 151.33, 296.92)" font-size="57.91" fill="#fff" font-family="UberMove-Bold, Uber Move" font-weight="700">L</text><text transform="matrix(0.71, -0.7, 0.85, 0.85, 171.34, 274.39)" font-size="57.91" fill="#fff" font-family="UberMove-Bold, Uber Move" font-weight="700"> </text><text transform="matrix(0.77, -0.63, 0.76, 0.93, 178.92, 265.87)" font-size="57.91" fill="#fff" font-family="UberMove-Bold, Uber Move" font-weight="700">A</text><text transform="matrix(0.83, -0.56, 0.67, 1, 202.89, 245.9)" font-size="57.91" fill="#fff" font-family="UberMove-Bold, Uber Move" font-weight="700">V</text><text transform="matrix(0.89, -0.46, 0.55, 1.06, 237.62, 223.68)" font-size="57.91" fill="#fff" font-family="UberMove-Bold, Uber Move" font-weight="700">I</text><text transform="matrix(0.93, -0.37, 0.45, 1.11, 249.13, 216.9)" font-size="57.91" fill="#fff" font-family="UberMove-Bold, Uber Move" font-weight="700">A</text><text transform="matrix(0.96, -0.27, 0.32, 1.16, 280.21, 204.09)" font-size="57.91" fill="#fff" font-family="UberMove-Bold, Uber Move" font-weight="700">T</text><text transform="translate(313.94 195.1) rotate(-10.71) scale(1 1.2)" font-size="57.91" fill="#fff" font-family="UberMove-Bold, Uber Move" font-weight="700">I</text><text transform="matrix(1, -0.08, 0.1, 1.2, 326.77, 191.73)" font-size="57.91" fill="#fff" font-family="UberMove-Bold, Uber Move" font-weight="700">O</text><text transform="translate(373.13 188.2) rotate(4.42) scale(1 1.2)" font-size="57.91" fill="#fff" font-family="UberMove-Bold, Uber Move" font-weight="700">N</text><text transform="matrix(0.99, 0.17, -0.2, 1.18, 414.71, 192.13)" font-size="57.91" fill="#fff" font-family="UberMove-Bold, Uber Move" font-weight="700"> </text><text transform="translate(426.05 193.37) rotate(15.18) scale(1 1.2)" font-size="57.91" fill="#fff" font-family="UberMove-Bold, Uber Move" font-weight="700">A</text><text transform="translate(463.9 203.57) rotate(22.91) scale(1 1.2)" font-size="57.91" fill="#fff" font-family="UberMove-Bold, Uber Move" font-weight="700">U</text><text transform="matrix(0.86, 0.51, -0.61, 1.04, 499.34, 218.65)" font-size="57.91" fill="#fff" font-family="UberMove-Bold, Uber Move" font-weight="700">T</text><text transform="translate(529.25 236) rotate(37.92) scale(1 1.2)" font-size="57.91" fill="#fff" font-family="UberMove-Bold, Uber Move" font-weight="700">H</text><text transform="translate(559.8 259.34) rotate(46.66) scale(1 1.2)" font-size="57.91" fill="#fff" font-family="UberMove-Bold, Uber Move" font-weight="700">O</text><text transform="translate(591.46 293.49) rotate(54.86) scale(1 1.2)" font-size="57.91" fill="#fff" font-family="UberMove-Bold, Uber Move" font-weight="700">R</text><text transform="translate(610.87 321.83) rotate(59.66) scale(1 1.2)" font-size="57.91" fill="#fff" font-family="UberMove-Bold, Uber Move" font-weight="700">I</text><text transform="matrix(0.43, 0.9, -1.08, 0.52, 618.05, 333.16)" font-size="57.91" fill="#fff" font-family="UberMove-Bold, Uber Move" font-weight="700">T</text><text transform="matrix(0.31, 0.95, -1.14, 0.37, 633.04, 364.31)" font-size="57.91" fill="#fff" font-family="UberMove-Bold, Uber Move" font-weight="700">Y</text><circle cx="372.53" cy="451.19" r="240.33" fill="#fff"/><circle cx="371.87" cy="454.61" r="233.26" fill="#22abe3"/><path d="M493.55,298.87c331,25.84,284.36,470.38-3.78,470.29C184.55,743.32,190,308.32,493.55,298.87Z" transform="translate(-121.92 -79.74)" fill="none" stroke="#fff" stroke-miterlimit="10" stroke-width="2"/><path d="M504.76,300.73C748,359.39,748.91,693.2,499,769.82" transform="translate(-121.92 -79.74)" fill="none" stroke="#fff" stroke-miterlimit="10" stroke-width="2"/><path d="M485.09,300.73c-177.8,98.37-184.74,340.1-3.17,462-249.66-68-241.29-402.37-2.61-463.06" transform="translate(-121.92 -79.74)" fill="none" stroke="#fff" stroke-miterlimit="10" stroke-width="2"/><path d="M499,298.87c179,101.18,187.81,348,0,465.73" transform="translate(-121.92 -79.74)" fill="none" stroke="#fff" stroke-miterlimit="10" stroke-width="2"/><path d="M488.87,300.73c-95.05,119.18-126,293.57-1.27,462" transform="translate(-121.92 -79.74)" fill="none" stroke="#fff" stroke-miterlimit="10" stroke-width="2"/><path d="M492,298.87C592.89,413.29,621.17,594.3,496.42,762.7" transform="translate(-121.92 -79.74)" fill="none" stroke="#fff" stroke-miterlimit="10" stroke-width="2"/><line x1="370.04" y1="220.99" x2="370.04" y2="681.23" fill="none" stroke="#fff" stroke-miterlimit="10" stroke-width="2"/><path d="M391.28,321.87c63.71,22.33,130.21,20.69,198.92,0" transform="translate(-121.92 -79.74)" fill="none" stroke="#fff" stroke-miterlimit="10" stroke-width="2"/><path d="M305.08,394c121.29,41.28,245.42,37.55,372.05-5.73" transform="translate(-121.92 -79.74)" fill="none" stroke="#fff" stroke-miterlimit="10" stroke-width="2"/><path d="M264.7,504.7c177.12,43.4,322.14,18.73,450.16-41.95" transform="translate(-121.92 -79.74)" fill="none" stroke="#fff" stroke-miterlimit="10" stroke-width="2"/><path d="M267.4,581C410.57,648.1,563,639.19,724.21,558.44" transform="translate(-121.92 -79.74)" fill="none" stroke="#fff" stroke-miterlimit="10" stroke-width="2"/><path d="M347.41,714.24C468,748,581.91,726.1,690.07,657" transform="translate(-121.92 -79.74)" fill="none" stroke="#fff" stroke-miterlimit="10" stroke-width="2"/><g opacity="0.61" style="mix-blend-mode:multiply"><path d="M588.76,543.64v3.94s.31,4.73,0,5.52,0,6,0,6l4.25,1.26s-.47,1.73,0,2.2-1.24,3-2.19,3.47-5.37,2.21-5.37,2.21h-4.57v2.36l-1,1.1,1.26,2.37.79,2.63-2.05,6.67-.79,2.68-2.2,1.73h-1.26v1.42l1.89,4.41,2.68,2.68h5.36l-1.22,2.21-3.35,2.2-4.58,1.9-5.35.78-3.47.79-3.78,1.26-3.63,1.11-3.94,1.26-2.68,1.57h-2.52l-2.36,2.84-9.15.63-6.14,1.89-3.47.63-3.47,2.21L522.88,619l-2.37.94s-.47,4.42,0,5.05,2,3.78,2,3.78l.32,3v3.63H512l-5.67.94H500v3.47l-6.47,1.42-3.46,3.47s-1.74,6-1.58,6.62a11,11,0,0,1,0,2.36L482.06,656l-3.15,1.11-4.42,3L468,663.89l-4.1,4.58L462,673.19l-3.94,4.57-2.2,1.9-1.26,3.94-5.84,3.46L442.34,689l-5.2-1.15L433,685.8l-2.05-.47-1.41,2.52-3.94-.47-2.05-1.89-2.53-1-4.57.47-6.46-2.2L406.25,680l-6-1.58-3.62-1.57-8.51-.32-4.42,2.37-6.46.79-2.52,1.57-3.63-1.42-5.51-3-2.37-3.47-1.89-1.89L358,669.41l-3.62-3.94L351.72,663l-3.78-3.15-1.9-.95-2.52-2.52-2.2-3.63-.63-2.36-1.27-2.21-1.26-5.35.79-3.31s-.31-3.31-.79-3.79,0-15.13,0-15.13l-.94-1.06V602.35l-.66-18-1-.47v-8.2l1-.55,13.16-.17v-.48h21.39v-.91h7.48v-.82h-1l0-.44h-.42v-.88h-.85v-1.32h.86l0-1.31h.43v-1.26h.85l0-2.66h.4v-1.26h.43v-.46h.46v-.4h.44v-.92h.43v-.43h.42v-2.18h-.43l0-.41h-.44l0-.44h-.4l0-11.33h-.45l0-2.15h-.42v-.45h-.42v-1.72h.42v-.89h.45V541h.44l0-.88h.43l0-.4h.42v-.44l.43,0v-2.59h-.4l0-.9h-.42l0-.85h-.4v-5.62h-.9l0-.44h.45v-1.32h-.42l0-.4h-.41v-.88h.42l0-.51h.44l0-.38h.85l0,.41,2.17,0v.83l.92,0v.44h.83v.42h.47v.4l.4,0v.38l.47,0v.47l.41,0v.44l1.26,0v.39l1.8,0v.43l.9,0v.34l.36,0v.88l.4,0v3l.91,0v3l.57,0v.45l1.69,0-.07-.44.5,0v-.43H395v-.41l1.27,0v-.41h.44v-.44H398v-.41l1.76,0v-.5l.94,0v-.39l.83,0v-.37l2.65-.1v-.39l.87,0v-.42l6.54-.24v9l3,3,1.89.32,2.05-.79,1.26,1.26h3.31l2.21,1.89,9.14.16v.79h3v1.72l4.41-1.09,4.57-.95v-4.73l1.89-1.89,4.57-.94v2.52l1.1,1.26v1.42l2.21,1.57,2.84.79v3l.94,3.15.79,1.73,7.57,1.11,4.57,1.57,3.94,1.1s6.93,5.21,6.93,5.68v3.15l4,3.15,1.32.16,2.68,4.68v2.73l.95,1.57h5.83l5.36-2h2.52v2.84h2.68V557.83l-6,.15.79,4.26-4.89-.32-3.47-1.57-3.15.31-3.31-3.15-1.32-3.15-2.15-1.89-3.62-2.21-1.74-2.84L478,544.74l-1.1-3v-3.94l2.36-3.78.63-3.79,1.42-3.78,1.73-2.83.79-2.68v-3.63l-.31-3-2.21-2.21,1-2.84.78-3.78.32-5.67L481.59,496l-1.42-3.31-2.05-1.1-1.74-1.1.16-1.58,4.42-3.47,6.14-4.25,2.37-3.31.47-4.89-.63-1.73,12.45-2.52,10.09-1.42,21.43-3.15,1.1,3.46,5,5.52,5.67.32,3.94,1.57,3.47,3v1.57l3.94,1.89,2,.48,1.89,1.1.94,2.21,5.36.15,2.84.79,9.61,4.89,3.31,2,1.26,2.68,4.1,2.68,2.84,2.67v6l4.57,3.31,2.52,5.52v6l-2.2,3.47-3,1.57-1.73.32-.16,1.57,1.1,3.31s-.31,2.68,0,3.16-1.73,3-1.73,3l-1.58,1.26-.47,3" transform="translate(-121.92 -79.74)"/></g><path d="M588.76,540.81v3.94s.31,4.72,0,5.51,0,6,0,6l4.25,1.26s-.47,1.74,0,2.21-1.24,3-2.19,3.47-5.37,2.2-5.37,2.2h-4.57v2.37l-1,1.1,1.26,2.36.79,2.63-2.05,6.67-.79,2.68-2.2,1.74h-1.26v1.41l1.89,4.42,2.68,2.68h5.36l-1.22,2.2L581,597.86l-4.58,1.89-5.35.79-3.47.79-3.78,1.26-3.63,1.1L556.29,605l-2.68,1.58h-2.52l-2.36,2.84-9.15.63-6.14,1.89-3.47.63-3.47,2.2-3.62,1.42-2.37,1s-.47,4.41,0,5,2,3.78,2,3.78l.32,3v3.62H512l-5.67,1H500V637l-6.47,1.41-3.46,3.47s-1.74,6-1.58,6.62a11.09,11.09,0,0,1,0,2.37l-6.45,2.36-3.15,1.1-4.42,3L468,661.06l-4.1,4.57L462,670.36l-3.94,4.57-2.2,1.89-1.26,3.94-5.84,3.47-6.46,1.94-5.2-1.15-4.1-2-2.05-.48L429.58,685l-3.94-.48-2.05-1.89-2.53-.94-4.57.47L410,680l-3.78-2.83-6-1.58L396.64,674l-8.51-.31L383.71,676l-6.46.79-2.52,1.58L371.1,677l-5.51-3-2.37-3.46-1.89-1.89-3.31-2-3.62-3.94-2.68-2.53L347.94,657,346,656l-2.52-2.53-2.2-3.62-.63-2.36-1.27-2.21-1.26-5.36.79-3.31s-.31-3.31-.79-3.78,0-15.13,0-15.13l-.94-1.07V599.51l-.66-18-1-.48v-8.19l1-.55,13.16-.18v-.47h21.39v-.92h7.48v-.82h-1l0-.43h-.42v-.88h-.85V567.3h.86l0-1.31h.43v-1.26h.85l0-2.65h.4v-1.26h.43v-.47h.46V560h.44V559h.43v-.44h.42v-2.18h-.43l0-.41h-.44l0-.43h-.4l0-11.34h-.45l0-2.14h-.42v-.45h-.42v-1.72h.42V539h.45v-.88h.44l0-.88h.43l0-.4h.42v-.45l.43,0v-2.59h-.4l0-.9h-.42l0-.85h-.4v-5.63h-.9l0-.44h.45v-1.31h-.42l0-.4h-.41v-.89h.42l0-.5h.44l0-.39h.85l0,.42,2.17,0v.83l.92,0v.45h.83v.41h.47v.4l.4,0v.39h.47V526h.41v.44h1.26v.38l1.8.05v.43h.9v.34l.36,0v.89h.4v3l.91,0v3l.57,0v.44l1.69,0-.07-.45.5,0v-.42H395v-.42h1.27v-.42l.44,0V533H398v-.42h1.76V532l.94,0v-.38l.83,0v-.37l2.65-.11v-.38l.87,0v-.43l6.54-.23v9l3,3,1.89.31,2.05-.79,1.26,1.27h3.31l2.21,1.89,9.14.15v.79h3v1.73l4.41-1.1,4.57-.94v-4.73l1.89-1.89,4.57-1v2.52l1.1,1.26V543l2.21,1.58,2.84.79v3l.94,3.15.79,1.74,7.57,1.1,4.57,1.58,3.94,1.1s6.93,5.2,6.93,5.67v3.16l4,3.15,1.32.16,2.68,4.67v2.73l.95,1.58h5.83l5.36-2h2.52V579h2.68V555l-6,.16.79,4.25-4.89-.31-3.47-1.58-3.15.32-3.31-3.15-1.32-3.16-2.15-1.89-3.62-2.2-1.74-2.84L478,541.91l-1.1-3V535l2.36-3.78.63-3.78,1.42-3.78,1.73-2.84.79-2.68v-3.62l-.31-3-2.21-2.2,1-2.84.78-3.78.32-5.68-1.73-3.78-1.42-3.31-2.05-1.1-1.74-1.11.16-1.57,4.42-3.47,6.14-4.26,2.37-3.31.47-4.88-.63-1.73,12.45-2.53,10.09-1.42,21.43-3.15,1.1,3.47,5,5.52,5.67.31,3.94,1.58,3.47,3v1.58l3.94,1.89,2,.47,1.89,1.11.94,2.2,5.36.16,2.84.79,9.61,4.88,3.31,2.05,1.26,2.68,4.1,2.68,2.84,2.68v6l4.57,3.31,2.52,5.52v6l-2.2,3.47-3,1.58-1.73.31-.16,1.58,1.1,3.31s-.31,2.68,0,3.15-1.73,3-1.73,3l-1.58,1.26-.47,3" transform="translate(-121.92 -79.74)" fill="#1b8b44"/><g opacity="0.78" style="mix-blend-mode:multiply"><polygon points="629.17 367.33 479.76 425.02 519.71 425.02 609.63 379.31 538.07 421.87 580.31 419.03 629.17 367.33"/></g><polygon points="629.17 364.5 479.76 422.18 519.71 422.18 609.63 376.48 538.07 419.03 580.31 416.19 629.17 364.5" fill="url(#linear-gradient)"/><polygon points="546.48 455.91 582.44 417.77 537.23 421.24 546.48 455.91" fill="#fff"/><path d="M239,609.41c11.82,141.37,375.89-51.07,364.07-100.35l32.62-1.55C534.81,617.39,229.12,739.93,239,609.41Z" transform="translate(-121.92 -79.74)" fill="#f58631"/><path d="M658,536.59,628.28,514c-19.19,33.77-205.79,142.41-324.59,158.33C418.86,664.44,570.16,600,658,536.59Z" transform="translate(-121.92 -79.74)" fill="#414042"/><path d="M646.6,511.06l37.35-2c-189.56,128.18-466.2,234.63-446.46,98.45C236.49,743.06,536.86,607.51,646.6,511.06Z" transform="translate(-121.92 -79.74)" fill="#ed2f39"/><text transform="translate(116.6 643.55) rotate(56.37) scale(1 1.2)" font-size="59.02" fill="#fff" font-family="UberMove-Bold, Uber Move" font-weight="700">R</text><text transform="translate(138.27 675.53) rotate(49.21) scale(1 1.2)" font-size="59.02" fill="#fff" font-family="UberMove-Bold, Uber Move" font-weight="700">E</text><text transform="matrix(0.74, 0.67, -0.8, 0.89, 161.31, 702.09)" font-size="59.02" fill="#fff" font-family="UberMove-Bold, Uber Move" font-weight="700">P</text><text transform="translate(190.75 728.4) rotate(33.9) scale(1 1.2)" font-size="59.02" fill="#fff" font-family="UberMove-Bold, Uber Move" font-weight="700">U</text><text transform="matrix(0.9, 0.43, -0.52, 1.08, 227.33, 752.53)" font-size="59.02" fill="#fff" font-family="UberMove-Bold, Uber Move" font-weight="700">B</text><text transform="translate(262.69 769.25) rotate(18.88) scale(1 1.2)" font-size="59.02" fill="#fff" font-family="UberMove-Bold, Uber Move" font-weight="700">L</text><text transform="translate(294.14 779.53) rotate(14.1) scale(1 1.2)" font-size="59.02" fill="#fff" font-family="UberMove-Bold, Uber Move" font-weight="700">I</text><text transform="matrix(0.99, 0.14, -0.17, 1.19, 310.26, 784.21)" font-size="59.02" fill="#fff" font-family="UberMove-Bold, Uber Move" font-weight="700">C</text><text transform="matrix(1, 0.04, -0.05, 1.2, 355.36, 789.64)" font-size="59.02" fill="#fff" font-family="UberMove-Bold, Uber Move" font-weight="700"> </text><text transform="translate(370.25 791.04) rotate(-4.22) scale(1 1.2)" font-size="59.02" fill="#fff" font-family="UberMove-Bold, Uber Move" font-weight="700">O</text><text transform="matrix(0.98, -0.22, 0.26, 1.17, 422.21, 786.29)" font-size="59.02" fill="#fff" font-family="UberMove-Bold, Uber Move" font-weight="700">F</text><text transform="matrix(0.95, -0.3, 0.36, 1.15, 455.13, 778.36)" font-size="59.02" fill="#fff" font-family="UberMove-Bold, Uber Move" font-weight="700"> </text><text transform="matrix(0.93, -0.38, 0.45, 1.11, 468.79, 774.53)" font-size="59.02" fill="#fff" font-family="UberMove-Bold, Uber Move" font-weight="700">Z</text><text transform="translate(504.9 759.71) rotate(-30.48) scale(1 1.2)" font-size="59.02" fill="#fff" font-family="UberMove-Bold, Uber Move" font-weight="700">A</text><text transform="translate(545.59 735.79) rotate(-40.6) scale(1 1.2)" font-size="59.02" fill="#fff" font-family="UberMove-Bold, Uber Move" font-weight="700">M</text><text transform="translate(588.19 697.87) rotate(-50.11) scale(1 1.2)" font-size="59.02" fill="#fff" font-family="UberMove-Bold, Uber Move" font-weight="700">B</text><text transform="translate(612.38 667.94) rotate(-55.44) scale(1 1.2)" font-size="59.02" fill="#fff" font-family="UberMove-Bold, Uber Move" font-weight="700">I</text><text transform="translate(622.32 654.54) rotate(-61.37) scale(1 1.2)" font-size="59.02" fill="#fff" font-family="UberMove-Bold, Uber Move" font-weight="700">A</text><path d="M421,471.49c-.75,2.16-2.23,2.67-4.22,2l-1.52-2.3c0-2.17,1.29-3.33,3.49-3.88l4.17-.43,4.31-5.32,1.47-1.26.54-.47H427a21.41,21.41,0,0,1-10.21,6.9c-3.21-1.1-4.84-4-7.18-4.88-2.5.26-3.57,1.65-3.61,3.88l2.62-.58,3.14,2.3a14.74,14.74,0,0,1-4.78,0l-2.62,1.73h2.26l.36.95,3.49.63a3.23,3.23,0,0,1,1.87,3.3c0,1.16-.09,2.58-.15,4.17-1.81.23-3.68,1.2-4.24,2.73a6.5,6.5,0,0,0,7-1.15,10.6,10.6,0,0,0,0-5.75c1.54.87,2.57,2.75,4,4.31h3l1.86,3.17V484l-2.58.86a5.38,5.38,0,0,0,3.88,2.3,5.49,5.49,0,0,0,2.58-3.16l.81-13.31a12.19,12.19,0,0,1-1.24.71C425.74,467.37,422.07,468.71,421,471.49Zm4.22,5.65q-3.54-2.44-.57-7A8.47,8.47,0,0,1,425.23,477.14Z" transform="translate(-121.92 -79.74)" fill="#a99073" stroke="#6a543b" stroke-miterlimit="10" stroke-width="0.5"/><path d="M450.11,454.82c1.63,7.43,12.94,13.56,20.7,18.07,3.5,3.35,3.39,5.81,0,7.44l-7.76-5.23,4.79,5.23c.48,3-.5,4.48-3.64,3.57l-6.52-6,4,5.65c-.1,2.35-1.43,2.94-3.92,1.82l-3-2.3.76,2.78a4.14,4.14,0,0,1-5.46.58l-1.44-3v1.72s-3.44,2.16-4.45-.57V474.9a8.48,8.48,0,0,0-2-5.46v6.75l-2.59-2.3v5.32l-3.16-2.59v5.32l-2.59-3v4.31l-3.3-3.73a7.79,7.79,0,0,0,0,5.89c-1.47-.37-2.84-1.37-4-3.59a23.63,23.63,0,0,1-1.72-4.89v-3.16c2.61-1.81,4.43-3.54,5.17-5.18a8.84,8.84,0,0,0,0-5.17c-.36-1.47-1.49-2.53-3.45-3.16-7.19.53-15.81-.58-19.54-3.74a6.91,6.91,0,0,0-4.89.48,11.76,11.76,0,0,1-4.41,4.22c-1.32-4.83-.89-9,1.15-12.65,2.86-3.69,7.21-3.69,9.58-6.51.94-1.13.63-3.55.2-4.6a8.29,8.29,0,0,0-4.22-2.11h-2.3a3.78,3.78,0,0,1-.67-2h-1.63q-1-1.11,0-3h1.29l-3.4-1.62v-3h-6.51l-2.88-2.59a76.12,76.12,0,0,1-13.51,0c-7.19-3.71-10.94-8.07-11-13.13,3.73,2,8.43,7.57,13.22,8.63a20.28,20.28,0,0,1-4-7.09,26.83,26.83,0,0,1,9.58,8c1,.81,2.26.56,3.65,0a12.71,12.71,0,0,1-4.41-3.41,2.88,2.88,0,0,1-.39-4c3.65,3.07,7.38,3.55,10.93,7.44,21,1,23.28,6.74,33.15,13.83,13.84-6.08,10.06-20.6,39.28-35.26a5.49,5.49,0,0,1-.19,5c18.8-8.15,31.52-10.23,49.82-19.93,3.83-2.45,5.2-.29,1.92,1.15-15.33,10.42-30.8,19.79-46.38,23.37,7,2.21,13.59-3.54,22.23-7.09,14.42-6.73,20.32-5.29,31.43-10.53,4.69-2.23,5.27.86,1,2.15-4.69,2.9-10.87,5.35-17.68,7.62-4.08.56-10.9,4-17.82,7.61L472.82,413c-1.2,1.74-1.13,2.8,1.29,2.58l14.66-6,14.37-6.33c6.28-.75,13.63-3.24,21.42-6.46,4.67-2.38,5.89,1.51,1,3L507,407.06l-6.32,1a104,104,0,0,0-10.06,6.32,35.66,35.66,0,0,1-19.4,4.31l.43,2a42.29,42.29,0,0,0,14.08-1.3,59.55,59.55,0,0,1,14.52-7.9c9.56,0,19.65-.33,30.18-1L524,415.59l-8.81.58h-1.73l-16.09.76a115.31,115.31,0,0,1-14.57,6.33H470.52c-.66.71-.66,1.47.38,2.3l11.5-.39a87.27,87.27,0,0,0,14.18-5.55l33.87-.2c-.38,1.88-1.41,3.37-4.17,3.84a36.26,36.26,0,0,1-6.61-.23,15.63,15.63,0,0,1-3.45,2.06,52.72,52.72,0,0,1-14.08-.06l-4.75-.36c-4.52,0-8.36,1.85-12.88,4.06H472.44c-2.81.81-2.78,2,1.53,2,3.66-.15,7.21.55,11.5-.63,8.42-3.39,21-2.53,33.15-2.49a19.72,19.72,0,0,1-9.39,4c-5,1-12.61.4-20.7-.58a10.07,10.07,0,0,1-5.36,2.49,45.19,45.19,0,0,1-13.42.39c-.18,1.77.8,2.31,2.49,2.1l12.65-1.29c.16,2.33-.9,3.72-3.45,4l-10.15-1c-.91.27-.57.56,0,.86l9.13.79c.73,4.09-1.12,5.94-5.32,5.75l-5.18-3.81c-2.11-.85-2.49-.53-.71,1.22l4.74,2.88c0,3.11-1.3,5-4.41,5.15l-6.13-4.22,4.22,4.79c-1.1,2.53-2.77,3.69-5.18,3.07l-4.21-5.17,2.68,6.13c.06,2.3-1.1,2.8-3.07,2.1l-5.17-3.25,3.59,4.69Z" transform="translate(-121.92 -79.74)" fill="#a99072" stroke="#6a543b" stroke-miterlimit="10" stroke-width="0.75"/><path d="M432.56,446l7.33-4.59c.86-1,.68-1.62-.43-1.8h-3.88l7.76-4.82H439.6c2.59-2.53,5.89-3,6.66-4.16.77-.8,1.12-1.57.84-2.3l-3.9.4,7.56-5.29c1.05-1.69,1-2.58,0-2.78l-3.66-.48,7.31-3.93" transform="translate(-121.92 -79.74)" fill="none" stroke="#6a543b" stroke-miterlimit="10" stroke-width="0.75"/><path d="M435.53,452.83l7.87-5,0,.06a4.29,4.29,0,0,0,.4-1,.88.88,0,0,0,0-.48c0-.12-.14-.17-.3-.19h0l-5.08.07h-.69l.53-.46a17.71,17.71,0,0,1,4-2.5,22.35,22.35,0,0,0,4.07-2.12l.16.59-3.93-.54-1.39-.19,1.31-.51c1.31-.51,2.6-1,3.84-1.68a9.63,9.63,0,0,0,3.23-2.35l0-.06.06,0a2.66,2.66,0,0,0,.74-.71c.11-.23.08-.36-.14-.6l.36.13-4.12.44-1.89.2,1.6-1c1.28-.81,2.54-1.64,3.75-2.52a23.52,23.52,0,0,0,3.38-2.89l0,0,0,0a3.55,3.55,0,0,0,1-1,1.5,1.5,0,0,0,.22-1.14l.42.38-4.21-.38-1.58-.14,1.38-.78c1.57-.88,3.12-1.78,4.59-2.77a16.33,16.33,0,0,0,3.89-3.5l0,0,0,0a2.58,2.58,0,0,0,.7-.88c0-.11,0-.05,0-.13a1.28,1.28,0,0,0-.45-.19h-5.43l.93-.8,8.84-7.55-.15.32v-1.72l.29.39A9,9,0,0,0,458,410l-1.85.69,1.48-1.3,6.18-5.4.2.5h-1.15l.17-.06c-1,.79-2,1.55-3.05,2.26s-2.14,1.35-3.23,2a24.11,24.11,0,0,0-3.12,2.07,16.56,16.56,0,0,0-2.58,2.71l-.07-.14,4.79.19h-5l.11-.14a16.16,16.16,0,0,1,2.54-2.82,24.85,24.85,0,0,1,3.1-2.2,49.85,49.85,0,0,0,6.13-4.34l.07-.07h2l-.57.51-6.09,5.51-.36-.6a13.56,13.56,0,0,1,3.1-.86,7.6,7.6,0,0,1,3.28.22l.29.09V411l-.15.13-8.79,7.59-.3-.8,4.31,0h.07l.05,0a2.18,2.18,0,0,1,.82.37,1,1,0,0,1,.35.5,1.09,1.09,0,0,1,0,.62,2.44,2.44,0,0,1-.44.77,7.11,7.11,0,0,1-.53.56l.06-.07a17.3,17.3,0,0,1-4.1,3.74c-1.51,1-3.09,1.95-4.67,2.82l-.2-.92,4.22.4.35,0,.08.35a2.5,2.5,0,0,1-.35,1.85,4.63,4.63,0,0,1-1.24,1.22l.07-.07a23.2,23.2,0,0,1-3.53,3c-1.25.9-2.52,1.72-3.81,2.53l-.28-.82,4.12-.42.21,0,.15.15a1.61,1.61,0,0,1,.41.74,1.28,1.28,0,0,1-.15.89,3.16,3.16,0,0,1-1,1l.11-.1a9.91,9.91,0,0,1-3.56,2.57,42,42,0,0,1-3.94,1.64l-.08-.7,3.93.6.78.13-.62.46a22.83,22.83,0,0,1-4.25,2.13,17.23,17.23,0,0,0-3.94,2.36l-.17-.45,5.08.07h0a.69.69,0,0,1,.58.45,1.22,1.22,0,0,1,0,.66,5,5,0,0,1-.46,1.11l0,0,0,0Z" transform="translate(-121.92 -79.74)" fill="#6a543b"/><path d="M445.11,452.36a6.43,6.43,0,0,0,3.79-.64,4.54,4.54,0,0,0,2.47-2.76l.16.21-6,.1h-.72l.55-.48a11.16,11.16,0,0,1,3.68-2c1.32-.45,2.68-.73,4-1.13l-.12.07a1.52,1.52,0,0,0,.62-.93c0-.27-.27-.58-.62-.83l.1.05-4-1.3-1.66-.54,1.73-.29a18.08,18.08,0,0,0,5.76-1.73A7,7,0,0,0,457,438.3a5.88,5.88,0,0,0,1.15-2.6l.46.55-4.93,0h-1.36l1-.88a25.22,25.22,0,0,1,8.17-4.74h0a1.71,1.71,0,0,0,1.1-.59c.14-.21,0-.68-.32-1.09l.38.2-5.46,0h-2.91l2.78-.86a14.28,14.28,0,0,0,7-4.24l0,0a6,6,0,0,0,.56-1.14,1.06,1.06,0,0,0,0-.95,1.43,1.43,0,0,0-1-.37,7.09,7.09,0,0,0-1.3,0l.08,0-2.79,1-1.1.41.78-.88c2.32-2.63,4.67-5.23,7-7.84l.11.22-6.14.44,6.12-.71.32,0-.21.26c-2.25,2.69-4.5,5.39-6.78,8.06l-.33-.47,2.77-1.09h.08a7.43,7.43,0,0,1,1.42-.06,2.11,2.11,0,0,1,1.49.6,1.75,1.75,0,0,1,.18,1.64,6.84,6.84,0,0,1-.61,1.31v0l0,0a11.79,11.79,0,0,1-3.34,2.87,20.32,20.32,0,0,1-4,1.73l-.13-.87,5.46,0H463l.13.2a3.31,3.31,0,0,1,.45.88,1.54,1.54,0,0,1-.05,1.17,1.85,1.85,0,0,1-.82.76,3.9,3.9,0,0,1-.9.32h0a25.56,25.56,0,0,0-7.84,4.6l-.31-.87,4.93,0h.57l-.11.56a6.74,6.74,0,0,1-1.34,3,8.09,8.09,0,0,1-2.53,2.06,19,19,0,0,1-6.06,1.79l.07-.83,4,1.38.06,0,0,0a3.3,3.3,0,0,1,.61.58,1.39,1.39,0,0,1,.3.91,1.54,1.54,0,0,1-.34.87,3.48,3.48,0,0,1-.57.58l-.06.05h-.06c-1.35.39-2.69.63-4,1a10.32,10.32,0,0,0-3.52,1.84l-.18-.46,6,.1h.22l-.06.21a4.84,4.84,0,0,1-2.71,2.84A6.45,6.45,0,0,1,445.11,452.36Z" transform="translate(-121.92 -79.74)" fill="#6a543b"/><path d="M401.7,452.45c2.64.44,3.43-.88,3.27-3.12C402.9,449.08,401.78,450.08,401.7,452.45Z" transform="translate(-121.92 -79.74)" fill="none" stroke="#6a543b" stroke-miterlimit="10" stroke-width="0.75"/><path d="M402.37,451.82c1.56.26,2-.52,1.93-1.84C403.08,449.83,402.42,450.42,402.37,451.82Z" transform="translate(-121.92 -79.74)" fill="#58595b"/><path d="M427.67,464c0-1.36-.9-1.88-2.2-2l-.58,9.54a8,8,0,0,0,3.26-3.79A6.34,6.34,0,0,0,427.67,464Z" transform="translate(-121.92 -79.74)" fill="#b09279"/><polyline points="341.58 389.16 340.15 393.76 335.93 391.46 333.87 395.1 331.43 393.76 330.38 396.45 327.31 394.72 327.31 402.19 325.68 400.56 325.97 395.68 323.19 395.68" fill="none" stroke="#6a543b" stroke-miterlimit="10"/><path d="M427.94,460.84a55.58,55.58,0,0,0-5.48,6.41c-4.79.19-7.42.48-7.66,4.31.47.65,1,1.4,1.52,2.3,2.07.94,3.61,0,4.63-2.82,1.88-2.78,4.87-2.35,5.82.71,2.1-1.17,3.81-2.55,4.51-4.5.86-1.64.71-3.53-.77-5.75Z" transform="translate(-121.92 -79.74)" fill="#a99073" stroke="#6a543b" stroke-miterlimit="10"/><path d="M399.33,455.65a4.32,4.32,0,0,0-.18,1.36c0,.45,0,.91-.1,1.38a6.07,6.07,0,0,1-.37,1.42,2.33,2.33,0,0,1-.92,1.2,12,12,0,0,0,.17-1.39c0-.45.07-.9.13-1.36a7.33,7.33,0,0,1,.32-1.41A2,2,0,0,1,399.33,455.65Z" transform="translate(-121.92 -79.74)" fill="#594a42"/><text transform="translate(847.19 394.47)" font-size="229.4" fill="#2b629a" font-family="UberMove-Bold, Uber Move" font-weight="700" letter-spacing="0.05em">Civil <tspan x="558.65" y="0" letter-spacing="-0.05em">A</tspan><tspan x="711.37" y="0" letter-spacing="0.05em">vi</tspan><tspan x="911.28" y="0" letter-spacing="0.03em">a</tspan><tspan x="1042.05" y="0" letter-spacing="0.05em">tion</tspan><tspan letter-spacing="0.03em"><tspan x="0" y="195.99">A</tspan><tspan x="171.09" y="195.99" letter-spacing="0.05em">uthori</tspan><tspan x="857.77" y="195.99" letter-spacing="0.06em">t</tspan><tspan x="955.37" y="195.99" letter-spacing="0.05em">y</tspan></tspan></text></g></g></svg>